<?xml version="1.0" encoding="UTF-8"?> <svg xmlns="http://www.w3.org/2000/svg" viewBox="0 0 100 100" fill-rule="evenodd"><path d="M19.117 83.213H80.36a3.115 3.115 0 0 0 3.116-3.116v-61.98A3.116 3.116 0 0 0 80.36 15H19.117A3.118 3.118 0 0 0 16 18.117v61.98a3.116 3.116 0 0 0 3.117 3.116Zm58.126-6.232h-55.01V21.233h55.01v55.748ZM41.357 66.519a3.114 3.114 0 0 0 4.447-.177l23.208-25.624a3.117 3.117 0 0 0-4.619-4.184l-21.076 23.27-9.143-8.613a3.116 3.116 0 1 0-4.273 4.537L41.357 66.52Z" fill="#f40e0e"></path></svg> 