<?xml version="1.0" encoding="UTF-8"?> <svg xmlns="http://www.w3.org/2000/svg" xmlns:xlink="http://www.w3.org/1999/xlink" id="Ebene_1" version="1.1" viewBox="0 0 3557.6 1088.5"><defs><style> .st0 { fill: #fff; } </style></defs><path class="st0" d="M392.3,690.6c1,.2,3,1.4,3.6,2.6l57.9,178.9,54.3-178.6c2.4-4.4,18.9-4.8,19.3.6l-113.6,376.5c-2.9.6-2-1.1-2.9-2.9-13.9-32.3-23.9-73.7-35-107.9-27.3-83.1-56-165.7-82.4-249.1s-7.4-20.3-2.6-20.3h101.5v.2h0Z"></path><path class="st0" d="M131.5,444.9l41.4,162.9,45.3-159.6c.7-2,1.8-2.9,3.9-3.2,3-.6,26.6-.3,28,.6l44.9,162.3,42.9-162.9h29.3l-57.9,198.6c-2,2-21.9,1.9-25.8,1.4s-3.7-.2-4.8-2.3l-45.2-154.9-44.3,150c-.7,1.6-1.9,4.8-2.9,5.7-2.3,2-28.7,3.9-30.5-2.4l-54.5-196.2h30.3,0Z"></path><path class="st0" d="M1248.8,446.2l70.7,158.6,72.9-158.6h27.9v196.5c0,.2-2,2.1-2.1,2.1h-22.9c-.2,0-2.1-2-2.1-2.1v-140.7l-62.6,139.6c-1.4,5.3-19.8,4-21.9.8l-62.7-140.5v140.7c0,.2-2,2.1-2.1,2.1h-22.9c-.2,0-2.1-2-2.1-2.1v-196.5h30-.1Z"></path><path class="st0" d="M1618.8,1074.9h-237.1c4.3-5.8,13.9-7,20.6-10.2,47.3-22.6,83.9-56.5,88.1-111.9v-257.3c-1.6-7.1,17.6-7.1,18.6-1.4,2.7,80.7-3.7,163.9,0,244.4,2.9,64.2,30.5,97.3,86.9,124.6,6,2.9,16.3,5.3,20.7,7.9,4.4,2.6,3,1.4,2.4,4h-.2Z"></path><g><path class="st0" d="M1916.8,690.6l113.6,230,97.4-228.1c2.3-2.7,21.9-3,22.6.5l-162.1,380.7c-12.6-21.9-22.3-45.5-33.3-68.1-45.6-93.3-92.7-186.2-137.3-279.9-2.4-5-13.9-27.3-14.3-30.2s.5-4.7,1.9-4.7h111.5l.2-.2h-.2Z"></path><path class="st0" d="M1971.9,544c0,56.1-45.6,101.8-101.8,101.8s-101.8-45.6-101.8-101.8,45.6-101.8,101.8-101.8,101.8,45.6,101.8,101.8ZM1864.3,466.7c-99.6,8.2-81.3,174,20.5,153.3,85.8-17.6,71.6-160.8-20.5-153.3h0Z"></path></g><g><g><path class="st0" d="M8.6,13.4h255.7c.6,3.2-.2,2.3-1.9,3.1-15.8,8.6-23.6,10.6-34.2,27.3-19.7,31.1-20.2,66.1-10.2,100.7,21.1,72.9,49,145.8,71.5,218.6,22.4,72.7,6.8,22,9,33.1h-108.6l-79.5-245.5C92.4,97,65.4,37.3,8.5,16.1v-2.9h0v.2Z"></path><path class="st0" d="M790.2,13.4c-4,5.7-12.6,6.8-18.4,10.8-30.2,20.5-42.1,73.9-32.1,107.7l85,264.3h-105.7l-52.9-160-47.1,160h-20c17-65.5,40-129.4,57.1-194.9-23.7-60-43.4-140.8-102.4-176.3-6.8-4-15.7-6-20.5-11.8h257.1-.2v.2Z"></path></g><g><path class="st0" d="M1774.6,396.2h-117.1l-148.6-305.7v305.7c-5.3-1-17.4,2.9-18.6-3.6V128.3c-4.3-49.9-42.3-84.7-85.5-104.6-7.6-3.6-17.4-4.7-23.1-10.5h205l187.9,382.9v.2h0Z"></path><path class="st0" d="M1347.4,13.4c-.5,2.1-2.6,2.9-4.3,3.6-8,3.1-17.4,4.4-26.1,8.1-46.3,19-78.4,56.8-92.7,104.4l-81,266.2c-1.6,1.1-13.7,1-16.6.6s-2.6.7-2-2l80.8-264.9c13.4-47-10.5-89.3-53.9-108.1-6.1-2.7-14.5-2.7-18.6-7.9h214.4,0Z"></path></g></g><g><path class="st0" d="M918.1,690.6l59.3,180,55.7-177.6c1.8-3.1,20-4.8,20,1.1l-115,376.5-122.1-380.1h102.1Z"></path><path class="st0" d="M700.9,644.8c-1.6-.5-2.6-3.1-2.1-4.8l69.9-192.9c1-1.4,32.1-1.4,33.1,0,19.8,59.5,43.4,117.7,64.2,177,1,3,8.4,20.7,3.6,20.7h-24.3c-4,0-14.4-39.4-18.7-44.2l-83.4-1.6c-2.4,5.7-14.8,45.7-17.9,45.7-6.3-1.1-19,1.6-24.3,0h-.2.1ZM818.7,577.7l-33.6-95.7-35,95.7h68.6Z"></path></g><g><path class="st0" d="M3094.7,1077.8c-206.6-16.4-394.9-167.6-459.1-363.1-1.6-4.5-6.3-17-6.6-20.7s1.1-3.2,2-3.2h125.7c7.1,12.1,9,27.4,13.6,40.7,58.9,174.4,190,327.2,387.9,326.6,143.4-.5,266.2-101.1,344.2-213.1,4.5-6.6,8.9-15.8,14-21.8,5.1-5.9,1.4-3,4-2.4l18.7,96.5c.5,6.3-7.6,11-12.3,15-77.7,65.5-232.5,136.5-333.6,145.7-25.5,2.3-73.1,2-98.6,0h0v-.2Z"></path><path class="st0" d="M3199.1,9c.2,0,1.6,1.4,3.4,1.4,102.1,7,212.9,36.3,293.8,100.7v152.1c-3.2.8-2.4-.7-3.2-1.9-31-36.1-55.2-72.6-91-106-159.6-148.7-390.9-181.5-546.5-7.9-60.8,67.9-97,159.4-112.1,248.6h-114.3c54.5-200.7,226-349.1,430.9-381.3,13.1-2,30.7-5,43.4-5.8,27.7-1.9,67.9-1.8,95.7,0h-.2.1Z"></path><path class="st0" d="M3552,643.5c-7,1.9-22.6,3.6-27.9-1.4l-100.7-151.5v152.1c0,.2-2,2.1-2.1,2.1h-24.3c-.2,0-2.1-2-2.1-2.1v-197.9h27.9l102.1,152.9v-152.9h27.1v198.6h0Z"></path><path class="st0" d="M2584.6,13.4c-.5,2-2.3,3.1-4,3.9-7.7,3.6-15,5-23,9.8-31.9,19-40.7,55-44.4,89.9v279.3h-104.3V86.3l-133.6,310h-20.7L2416.1,13.4h168.6-.1Z"></path><path class="st0" d="M2509.6,690.6c.7,0,2.3,1.4,3.2,1.8v279.2c4.8,35.5,13.4,71.9,46.6,90.7s16.9,6.1,23.3,9.5c6.4,3.4,2.4,0,1.9,3.1h-248.6c.7-5.7,10.3-6,15.3-8.2,40.7-19.3,55.2-59.2,57.7-102.3,5.3-87.7-4-180.6,0-268.7-.3-1.4,1-4.8,2.3-4.8h98.6l-.3-.2h0Z"></path><path class="st0" d="M3047.4,544c0,56.1-45.6,101.8-101.8,101.8s-101.8-45.6-101.8-101.8,45.6-101.8,101.8-101.8,101.8,45.6,101.8,101.8ZM2940.2,466.7c-99.3,8.2-81.5,172.9,19.3,153.4,87.3-16.9,73.1-161.2-19.3-153.4Z"></path><path class="st0" d="M2501.8,503.4h-32.1c-19.4-43.4-82.4-48.6-112.9-14.3-21.6,24.2-23.7,68.1-9.2,96.3,21.4,41.3,85.3,48.9,114.2,11.6s6.4-13.6,9.3-13.6h28.6c3.7,0,.7,6.9,0,8.6-15.2,36.3-60.5,57.4-98.4,54.2-71.1-6.3-109.7-78.9-84-143.7,25.7-64.9,155.6-81.6,184.6,1h-.1Z"></path></g></svg> 