<?xml version="1.0" encoding="UTF-8"?> <svg xmlns="http://www.w3.org/2000/svg" xmlns:xlink="http://www.w3.org/1999/xlink" id="Ebene_1" version="1.1" viewBox="0 0 3840 2160"><defs><style> .st0 { fill: #fff; } </style></defs><path class="st0" d="M3356.2,1657.5c-96.4-7.3-187.8-36.8-270.1-87.4-120.3-74-210.7-193.4-248.8-329.4h136.7c4.6,7.3,5.7,17.1,8.5,25.5,66.1,206.3,212.8,382.5,448.8,369.7,138.8-7.6,263.6-110.9,341.8-218.8,7.3-9.9,14.7-24.7,22.2-33.4,7.6-8.6,1.5-3.2,4.3-2.6l19.8,105.5c-1.2,6.5-66.9,50.8-77.1,57.1-88.6,55.4-204.3,104.2-309.3,112.1l-2.5,1.4h-74.1v.3h-.2Z"></path><path class="st0" d="M3425.7,503c75.7,3.1,153,17.3,224.2,43.6,43.2,15.9,86.6,36.8,121.7,66.7v162.8c-80.6-112.3-198.9-219.3-339.5-244.9-243.9-44.5-412.3,128.8-465.9,350-3.1,12.8-4.5,26.9-9.3,38.6h-119.7c19-71.8,55.4-140.8,101.3-198.9,104.4-132.4,264.7-210,433-217.8,17-.8,37.1-.6,54.1,0h0Z"></path><path class="st0" d="M3833.4,1186.7c-5.4,2-26.9,2.9-30.1,0l-110.4-166.8v168.2h-27.8v-214.5h27l112,166.6v-166.6l29.3,1.5v211.4h0v.2Z"></path><path class="st0" d="M1910.7,919.6h-125.1l-160.6-331.9v331.9h-18.5v-280.3c-3.6-55.4-34.3-89.4-80.9-115.2l-33.5-15.1h217l201.5,410.6h.2Z"></path><path class="st0" d="M843.5,509.2l-17.8,10.8c-35.4,29.8-44.2,81.7-30.6,124.6l88.5,275.2h-112.7l-54.8-174.5-54.1,173-20.8,1.5,63.3-209.1c-27.6-67.2-45.2-147.3-109.8-189.8l-21.5-11.7h270.3Z"></path><path class="st0" d="M2783.2,509.2l-26.1,13.3c-35.8,20.5-43.7,63.8-48,101.6v295.7h-111.2v-336.5l-142.9,335c-1.9,2.3-16.4,2-20.1,1.5s-2.6.8-2.3-2.3l175.3-408.3h175.3Z"></path><path class="st0" d="M276.7,509.2l-23.2,14.7c-27.8,28.6-39.1,74.6-28.3,113l91.6,282.9h-117.4c-1.5-7.1-3.6-14.4-5.7-21.3-28.4-84.6-53.7-172.2-83.7-255.9-14.7-40.6-34.4-81.4-67.2-110.3l-36.3-23.2h270.3-.2Z"></path><path class="st0" d="M2706.8,1240.7l2.5,5.3c4.3,95.1-6,195.8,0,290.3,2.5,40.5,15.9,86.5,54.1,106.4l21.6,10h-264.1l28.6-13.9c32.4-19.3,46.5-61.9,48.6-97.9,6-96.1-4.5-198.3,0-295l2.5-5.3h106.6-.3Z"></path><polygon class="st0" points="2067.4 1240.7 2189.4 1487.8 2295.2 1240.7 2316.8 1240.7 2143.1 1651.4 1945.4 1240.7 2067.4 1240.7"></polygon><path class="st0" d="M420.3,1240.7l64.1,197.5,59.1-194.1c3.6-6.6,14.1-2.3,20.4-3.6l-122.8,407.6-132.8-407.6h112v.2Z"></path><polygon class="st0" points="986.4 1240.7 1053.5 1438.4 1112.4 1240.9 1130.8 1240.7 1008.7 1648.3 875.9 1240.7 986.4 1240.7"></polygon><path class="st0" d="M134.6,973.7l47.1,179.1,51.1-179.1c7.7,1.7,28-3.6,31.8,3.6l49.1,174,47.1-177.4h28.6l-61.9,214.4-31.5-1.4-49.4-168.3-51,168.3-29.5,1.7-61-214.7h29.5v-.2Z"></path><path class="st0" d="M1341.6,975.2l80.3,173,76.4-173h28.6l2.3,2.3v208.3l-2.3,2.3h-24.7l-2.3-2.3v-152.1l-68.1,152c-3.9,4.9-13.4,1.5-19.2,2.6l-71.8-154.4v152.1l-2.3,2.3h-24.7l-2.3-2.3v-208.3l2.3-2.3h27.8v-.2Z"></path><path class="st0" d="M1490.6,1652.9l47.7-24.1c42.3-27.2,65.2-63,68.1-114v-274.1l17.8,1.4.8,3.9c4.2,90-5.9,185.5,0,274.9,3.6,54.7,34.7,90,80.9,115.2l36.6,16.7h-251.9v.2Z"></path><path class="st0" d="M3287.1,1080.9c0,60.2-48.8,108.9-109,108.9s-109-48.8-109-108.9,48.8-108.9,109-108.9,109,48.8,109,108.9ZM3164.4,997.3c-76.9,9.3-87.9,132.4-18.7,161.4,48.6,20.4,103.3-7.7,109.8-61.2,7.3-60.4-26.9-108-91-100.2h-.2Z"></path><path class="st0" d="M2124.4,1080.9c0,60.2-48.8,108.9-109,108.9s-109-48.8-109-108.9,48.8-108.9,109-108.9,109,48.8,109,108.9ZM2001.5,997.3c-36.9,4.3-61.8,39.1-64.6,74.4-9.3,120,156.9,126.3,156.9,9s-37.5-90-92.4-83.4h0Z"></path><path class="st0" d="M1444.3,509.2l-40.2,16.2c-42.2,21.3-69.3,55.9-85.4,99.9-32.9,90.8-55.4,190.9-85.6,283.4-1.1,3.4-2.5,6.8-3.4,10.2l-18.7.9,89.1-296.1c8.6-42.2-11.7-80.2-47.6-101.3l-29.2-13.3h220.8Z"></path><path class="st0" d="M934.6,1188.2h-27c-8.5-14.2-12.7-32-17.9-47.7l-94.2.8-17.6,46.9h-28.6l79.5-213.1,31,1.7,74.9,211.6h0l-.2-.2ZM880.6,1117.3l-37.8-105-37.8,105h75.7Z"></path><path class="st0" d="M2696.7,1037h-31.7c-16.5-30.7-42.3-43.4-77.2-40.2-89.7,8.3-91.4,160.3,3.2,168,33.4,2.8,57.6-11.7,74-40h31.7c-18.5,56.5-85.6,77.2-138.7,57.6-82.6-30.6-89.7-153.8-14.1-197.1,75.7-43.2,134.4-10.5,152.7,51.6h0Z"></path></svg> 